<mxfile host="app.diagrams.net" agent="Mozilla/5.0 (Windows NT 10.0; Win64; x64) AppleWebKit/537.36 (KHTML, like Gecko) Chrome/136.0.0.0 Safari/537.36 Edg/136.0.0.0" version="27.0.4">
  <diagram name="Pagina-1" id="nsfDxvCUKsriRhA3tgKR">
    <mxGraphModel dx="1477" dy="771" grid="1" gridSize="10" guides="1" tooltips="1" connect="1" arrows="1" fold="1" page="1" pageScale="1" pageWidth="827" pageHeight="1169" math="0" shadow="0">
      <root>
        <mxCell id="0" />
        <mxCell id="1" parent="0" />
        <mxCell id="RL78s0kAJ6QBPdJiwxIZ-3" style="edgeStyle=orthogonalEdgeStyle;rounded=0;orthogonalLoop=1;jettySize=auto;html=1;exitX=1;exitY=0.5;exitDx=0;exitDy=0;entryX=0;entryY=0.5;entryDx=0;entryDy=0;endArrow=none;startFill=0;" parent="1" source="RL78s0kAJ6QBPdJiwxIZ-1" target="RL78s0kAJ6QBPdJiwxIZ-2" edge="1">
          <mxGeometry relative="1" as="geometry" />
        </mxCell>
        <mxCell id="RL78s0kAJ6QBPdJiwxIZ-27" style="edgeStyle=orthogonalEdgeStyle;rounded=0;orthogonalLoop=1;jettySize=auto;html=1;exitX=0;exitY=0.5;exitDx=0;exitDy=0;entryX=1;entryY=0.5;entryDx=0;entryDy=0;endArrow=none;startFill=0;" parent="1" source="RL78s0kAJ6QBPdJiwxIZ-1" target="RL78s0kAJ6QBPdJiwxIZ-26" edge="1">
          <mxGeometry relative="1" as="geometry" />
        </mxCell>
        <mxCell id="RL78s0kAJ6QBPdJiwxIZ-1" value="Cliente" style="whiteSpace=wrap;html=1;align=center;" parent="1" vertex="1">
          <mxGeometry x="275" y="320" width="110" height="40" as="geometry" />
        </mxCell>
        <mxCell id="RL78s0kAJ6QBPdJiwxIZ-5" style="edgeStyle=orthogonalEdgeStyle;rounded=0;orthogonalLoop=1;jettySize=auto;html=1;exitX=1;exitY=0.5;exitDx=0;exitDy=0;entryX=0;entryY=0.5;entryDx=0;entryDy=0;endArrow=none;startFill=0;" parent="1" source="RL78s0kAJ6QBPdJiwxIZ-2" target="RL78s0kAJ6QBPdJiwxIZ-4" edge="1">
          <mxGeometry relative="1" as="geometry" />
        </mxCell>
        <mxCell id="RL78s0kAJ6QBPdJiwxIZ-2" value="Formulare" style="shape=rhombus;perimeter=rhombusPerimeter;whiteSpace=wrap;html=1;align=center;" parent="1" vertex="1">
          <mxGeometry x="445" y="310" width="120" height="60" as="geometry" />
        </mxCell>
        <mxCell id="RL78s0kAJ6QBPdJiwxIZ-8" style="edgeStyle=orthogonalEdgeStyle;rounded=0;orthogonalLoop=1;jettySize=auto;html=1;exitX=0.5;exitY=1;exitDx=0;exitDy=0;entryX=0.5;entryY=0;entryDx=0;entryDy=0;endArrow=none;startFill=0;" parent="1" source="RL78s0kAJ6QBPdJiwxIZ-4" target="RL78s0kAJ6QBPdJiwxIZ-7" edge="1">
          <mxGeometry relative="1" as="geometry">
            <Array as="points">
              <mxPoint x="725" y="360" />
            </Array>
          </mxGeometry>
        </mxCell>
        <mxCell id="RL78s0kAJ6QBPdJiwxIZ-4" value="Offerte" style="whiteSpace=wrap;html=1;align=center;" parent="1" vertex="1">
          <mxGeometry x="665" y="320" width="120" height="40" as="geometry" />
        </mxCell>
        <mxCell id="RL78s0kAJ6QBPdJiwxIZ-10" style="edgeStyle=orthogonalEdgeStyle;rounded=0;orthogonalLoop=1;jettySize=auto;html=1;exitX=0.5;exitY=1;exitDx=0;exitDy=0;entryX=0.5;entryY=0;entryDx=0;entryDy=0;endArrow=none;startFill=0;" parent="1" source="RL78s0kAJ6QBPdJiwxIZ-7" target="RL78s0kAJ6QBPdJiwxIZ-9" edge="1">
          <mxGeometry relative="1" as="geometry">
            <Array as="points">
              <mxPoint x="725" y="570" />
            </Array>
          </mxGeometry>
        </mxCell>
        <mxCell id="RL78s0kAJ6QBPdJiwxIZ-7" value="riferimento" style="shape=rhombus;perimeter=rhombusPerimeter;whiteSpace=wrap;html=1;align=center;" parent="1" vertex="1">
          <mxGeometry x="665" y="430" width="120" height="60" as="geometry" />
        </mxCell>
        <mxCell id="RL78s0kAJ6QBPdJiwxIZ-12" style="edgeStyle=orthogonalEdgeStyle;rounded=0;orthogonalLoop=1;jettySize=auto;html=1;exitX=0;exitY=0.5;exitDx=0;exitDy=0;entryX=1;entryY=0.5;entryDx=0;entryDy=0;endArrow=none;startFill=0;" parent="1" source="RL78s0kAJ6QBPdJiwxIZ-9" target="RL78s0kAJ6QBPdJiwxIZ-11" edge="1">
          <mxGeometry relative="1" as="geometry" />
        </mxCell>
        <mxCell id="RL78s0kAJ6QBPdJiwxIZ-9" value="Asta" style="whiteSpace=wrap;html=1;align=center;" parent="1" vertex="1">
          <mxGeometry x="665" y="570" width="120" height="40" as="geometry" />
        </mxCell>
        <mxCell id="RL78s0kAJ6QBPdJiwxIZ-14" style="edgeStyle=orthogonalEdgeStyle;rounded=0;orthogonalLoop=1;jettySize=auto;html=1;exitX=0;exitY=0.5;exitDx=0;exitDy=0;endArrow=none;startFill=0;" parent="1" source="RL78s0kAJ6QBPdJiwxIZ-11" target="RL78s0kAJ6QBPdJiwxIZ-13" edge="1">
          <mxGeometry relative="1" as="geometry" />
        </mxCell>
        <mxCell id="RL78s0kAJ6QBPdJiwxIZ-11" value="Relativa" style="shape=rhombus;perimeter=rhombusPerimeter;whiteSpace=wrap;html=1;align=center;fontColor=#000000;" parent="1" vertex="1">
          <mxGeometry x="435" y="560" width="120" height="60" as="geometry" />
        </mxCell>
        <mxCell id="RL78s0kAJ6QBPdJiwxIZ-18" style="edgeStyle=orthogonalEdgeStyle;rounded=0;orthogonalLoop=1;jettySize=auto;html=1;exitX=0.5;exitY=1;exitDx=0;exitDy=0;endArrow=none;startFill=0;" parent="1" source="RL78s0kAJ6QBPdJiwxIZ-13" target="RL78s0kAJ6QBPdJiwxIZ-15" edge="1">
          <mxGeometry relative="1" as="geometry">
            <Array as="points">
              <mxPoint x="330" y="660" />
              <mxPoint x="330" y="660" />
            </Array>
          </mxGeometry>
        </mxCell>
        <mxCell id="RL78s0kAJ6QBPdJiwxIZ-13" value="Oggetto" style="whiteSpace=wrap;html=1;align=center;" parent="1" vertex="1">
          <mxGeometry x="275" y="570" width="110" height="40" as="geometry" />
        </mxCell>
        <mxCell id="RL78s0kAJ6QBPdJiwxIZ-15" value="Appartenenza" style="shape=rhombus;perimeter=rhombusPerimeter;whiteSpace=wrap;html=1;align=center;" parent="1" vertex="1">
          <mxGeometry x="270" y="670" width="120" height="60" as="geometry" />
        </mxCell>
        <mxCell id="RL78s0kAJ6QBPdJiwxIZ-16" value="Categoria&amp;nbsp;" style="whiteSpace=wrap;html=1;align=center;" parent="1" vertex="1">
          <mxGeometry x="110" y="688" width="100" height="40" as="geometry" />
        </mxCell>
        <mxCell id="RL78s0kAJ6QBPdJiwxIZ-25" value="CF" style="text;html=1;align=center;verticalAlign=middle;resizable=0;points=[];autosize=1;strokeColor=none;fillColor=none;fontSize=7;" parent="1" vertex="1">
          <mxGeometry x="260" y="390.4" width="30" height="20" as="geometry" />
        </mxCell>
        <mxCell id="RL78s0kAJ6QBPdJiwxIZ-26" value="Carta di&lt;br&gt;Credito" style="ellipse;whiteSpace=wrap;html=1;align=center;" parent="1" vertex="1">
          <mxGeometry x="130" y="320" width="100" height="40" as="geometry" />
        </mxCell>
        <mxCell id="RL78s0kAJ6QBPdJiwxIZ-31" value="" style="ellipse;whiteSpace=wrap;html=1;aspect=fixed;" parent="1" vertex="1">
          <mxGeometry x="130" y="295" width="10" height="10" as="geometry" />
        </mxCell>
        <mxCell id="RL78s0kAJ6QBPdJiwxIZ-32" value="" style="ellipse;whiteSpace=wrap;html=1;aspect=fixed;" parent="1" vertex="1">
          <mxGeometry x="160" y="295" width="10" height="10" as="geometry" />
        </mxCell>
        <mxCell id="RL78s0kAJ6QBPdJiwxIZ-36" style="edgeStyle=orthogonalEdgeStyle;rounded=0;orthogonalLoop=1;jettySize=auto;html=1;exitX=0.5;exitY=1;exitDx=0;exitDy=0;entryX=0.05;entryY=0.25;entryDx=0;entryDy=0;entryPerimeter=0;endArrow=none;startFill=0;" parent="1" source="RL78s0kAJ6QBPdJiwxIZ-31" target="RL78s0kAJ6QBPdJiwxIZ-26" edge="1">
          <mxGeometry relative="1" as="geometry" />
        </mxCell>
        <mxCell id="RL78s0kAJ6QBPdJiwxIZ-37" style="edgeStyle=orthogonalEdgeStyle;rounded=0;orthogonalLoop=1;jettySize=auto;html=1;exitX=0.5;exitY=1;exitDx=0;exitDy=0;entryX=0.35;entryY=0.041;entryDx=0;entryDy=0;entryPerimeter=0;endArrow=none;startFill=0;" parent="1" source="RL78s0kAJ6QBPdJiwxIZ-32" target="RL78s0kAJ6QBPdJiwxIZ-26" edge="1">
          <mxGeometry relative="1" as="geometry" />
        </mxCell>
        <mxCell id="RL78s0kAJ6QBPdJiwxIZ-39" value="" style="ellipse;whiteSpace=wrap;html=1;aspect=fixed;" parent="1" vertex="1">
          <mxGeometry x="180" y="295" width="10" height="10" as="geometry" />
        </mxCell>
        <mxCell id="RL78s0kAJ6QBPdJiwxIZ-40" value="" style="ellipse;whiteSpace=wrap;html=1;aspect=fixed;" parent="1" vertex="1">
          <mxGeometry x="200" y="295" width="10" height="10" as="geometry" />
        </mxCell>
        <mxCell id="RL78s0kAJ6QBPdJiwxIZ-42" style="edgeStyle=orthogonalEdgeStyle;rounded=0;orthogonalLoop=1;jettySize=auto;html=1;exitX=0.5;exitY=1;exitDx=0;exitDy=0;entryX=0.55;entryY=0.003;entryDx=0;entryDy=0;entryPerimeter=0;endArrow=none;startFill=0;" parent="1" source="RL78s0kAJ6QBPdJiwxIZ-39" target="RL78s0kAJ6QBPdJiwxIZ-26" edge="1">
          <mxGeometry relative="1" as="geometry" />
        </mxCell>
        <mxCell id="RL78s0kAJ6QBPdJiwxIZ-43" style="edgeStyle=orthogonalEdgeStyle;shape=connector;rounded=0;orthogonalLoop=1;jettySize=auto;html=1;exitX=0.5;exitY=1;exitDx=0;exitDy=0;entryX=0.754;entryY=0.07;entryDx=0;entryDy=0;entryPerimeter=0;strokeColor=default;align=center;verticalAlign=middle;fontFamily=Helvetica;fontSize=11;fontColor=default;labelBackgroundColor=default;startFill=0;endArrow=none;" parent="1" source="RL78s0kAJ6QBPdJiwxIZ-40" target="RL78s0kAJ6QBPdJiwxIZ-26" edge="1">
          <mxGeometry relative="1" as="geometry" />
        </mxCell>
        <mxCell id="RL78s0kAJ6QBPdJiwxIZ-44" value="Intestatario" style="text;html=1;align=center;verticalAlign=middle;whiteSpace=wrap;rounded=0;fontFamily=Helvetica;fontSize=7;fontColor=default;labelBackgroundColor=default;" parent="1" vertex="1">
          <mxGeometry x="100" y="270" width="60" height="30" as="geometry" />
        </mxCell>
        <mxCell id="RL78s0kAJ6QBPdJiwxIZ-45" value="&lt;font style=&quot;font-size: 7px;&quot;&gt;CVV&lt;/font&gt;" style="text;html=1;align=center;verticalAlign=middle;resizable=0;points=[];autosize=1;strokeColor=none;fillColor=none;fontFamily=Helvetica;fontSize=11;fontColor=default;labelBackgroundColor=default;" parent="1" vertex="1">
          <mxGeometry x="140" y="270" width="40" height="30" as="geometry" />
        </mxCell>
        <mxCell id="RL78s0kAJ6QBPdJiwxIZ-46" value="&lt;font style=&quot;font-size: 7px;&quot;&gt;Numero&lt;/font&gt;" style="text;html=1;align=center;verticalAlign=middle;resizable=0;points=[];autosize=1;strokeColor=none;fillColor=none;fontFamily=Helvetica;fontSize=11;fontColor=default;labelBackgroundColor=default;" parent="1" vertex="1">
          <mxGeometry x="160" y="270" width="50" height="30" as="geometry" />
        </mxCell>
        <mxCell id="RL78s0kAJ6QBPdJiwxIZ-47" value="Data&lt;br&gt;Scadenza" style="text;html=1;align=center;verticalAlign=middle;resizable=0;points=[];autosize=1;strokeColor=none;fillColor=none;fontFamily=Helvetica;fontSize=7;fontColor=default;labelBackgroundColor=default;" parent="1" vertex="1">
          <mxGeometry x="200" y="270" width="50" height="30" as="geometry" />
        </mxCell>
        <mxCell id="RL78s0kAJ6QBPdJiwxIZ-48" value="" style="ellipse;whiteSpace=wrap;html=1;aspect=fixed;" parent="1" vertex="1">
          <mxGeometry x="300" y="379.76" width="10" height="10" as="geometry" />
        </mxCell>
        <mxCell id="RL78s0kAJ6QBPdJiwxIZ-52" style="edgeStyle=orthogonalEdgeStyle;shape=connector;rounded=0;orthogonalLoop=1;jettySize=auto;html=1;entryX=0.959;entryY=0.817;entryDx=0;entryDy=0;entryPerimeter=0;strokeColor=default;align=center;verticalAlign=middle;fontFamily=Helvetica;fontSize=11;fontColor=default;labelBackgroundColor=default;startFill=0;endArrow=none;" parent="1" edge="1">
          <mxGeometry relative="1" as="geometry">
            <mxPoint x="285" y="300" as="sourcePoint" />
            <mxPoint x="285" y="300" as="targetPoint" />
          </mxGeometry>
        </mxCell>
        <mxCell id="RL78s0kAJ6QBPdJiwxIZ-55" value="Nome" style="text;html=1;align=center;verticalAlign=middle;resizable=0;points=[];autosize=1;strokeColor=none;fillColor=none;fontFamily=Helvetica;fontSize=7;fontColor=default;labelBackgroundColor=default;" parent="1" vertex="1">
          <mxGeometry x="405" y="345" width="40" height="20" as="geometry" />
        </mxCell>
        <mxCell id="RL78s0kAJ6QBPdJiwxIZ-57" value="Cognome" style="text;html=1;align=center;verticalAlign=middle;resizable=0;points=[];autosize=1;strokeColor=none;fillColor=none;fontFamily=Helvetica;fontSize=7;fontColor=default;labelBackgroundColor=default;" parent="1" vertex="1">
          <mxGeometry x="360" y="390.4" width="50" height="20" as="geometry" />
        </mxCell>
        <mxCell id="RL78s0kAJ6QBPdJiwxIZ-60" value="Data&lt;br&gt;nascita" style="text;html=1;align=center;verticalAlign=middle;resizable=0;points=[];autosize=1;strokeColor=none;fillColor=none;fontFamily=Helvetica;fontSize=7;fontColor=default;labelBackgroundColor=default;" parent="1" vertex="1">
          <mxGeometry x="280" y="389.76" width="50" height="30" as="geometry" />
        </mxCell>
        <mxCell id="RL78s0kAJ6QBPdJiwxIZ-63" value="" style="ellipse;whiteSpace=wrap;html=1;aspect=fixed;" parent="1" vertex="1">
          <mxGeometry x="345" y="379.76" width="10" height="10" as="geometry" />
        </mxCell>
        <mxCell id="RL78s0kAJ6QBPdJiwxIZ-66" value="Citta&lt;div&gt;nascita&lt;/div&gt;" style="text;html=1;align=center;verticalAlign=middle;resizable=0;points=[];autosize=1;strokeColor=none;fillColor=none;fontFamily=Helvetica;fontSize=7;fontColor=default;labelBackgroundColor=default;" parent="1" vertex="1">
          <mxGeometry x="325" y="385.4" width="50" height="30" as="geometry" />
        </mxCell>
        <mxCell id="RL78s0kAJ6QBPdJiwxIZ-67" style="edgeStyle=orthogonalEdgeStyle;shape=connector;rounded=0;orthogonalLoop=1;jettySize=auto;html=1;exitX=0.5;exitY=0;exitDx=0;exitDy=0;entryX=0.681;entryY=1.002;entryDx=0;entryDy=0;entryPerimeter=0;strokeColor=default;align=center;verticalAlign=middle;fontFamily=Helvetica;fontSize=7;fontColor=default;labelBackgroundColor=default;autosize=1;resizable=0;startFill=0;endArrow=none;" parent="1" source="RL78s0kAJ6QBPdJiwxIZ-63" target="RL78s0kAJ6QBPdJiwxIZ-1" edge="1">
          <mxGeometry relative="1" as="geometry" />
        </mxCell>
        <mxCell id="RL78s0kAJ6QBPdJiwxIZ-69" style="edgeStyle=orthogonalEdgeStyle;shape=connector;rounded=0;orthogonalLoop=1;jettySize=auto;html=1;exitX=0.5;exitY=0;exitDx=0;exitDy=0;entryX=0.271;entryY=1.002;entryDx=0;entryDy=0;entryPerimeter=0;strokeColor=default;align=center;verticalAlign=middle;fontFamily=Helvetica;fontSize=7;fontColor=default;labelBackgroundColor=default;autosize=1;resizable=0;startFill=0;endArrow=none;" parent="1" source="RL78s0kAJ6QBPdJiwxIZ-48" target="RL78s0kAJ6QBPdJiwxIZ-1" edge="1">
          <mxGeometry relative="1" as="geometry" />
        </mxCell>
        <mxCell id="RL78s0kAJ6QBPdJiwxIZ-71" value="" style="ellipse;whiteSpace=wrap;html=1;aspect=fixed;" parent="1" vertex="1">
          <mxGeometry x="405" y="350" width="10" height="10" as="geometry" />
        </mxCell>
        <mxCell id="RL78s0kAJ6QBPdJiwxIZ-78" value="" style="ellipse;whiteSpace=wrap;html=1;aspect=fixed;" parent="1" vertex="1">
          <mxGeometry x="680" y="290" width="10" height="10" as="geometry" />
        </mxCell>
        <mxCell id="RL78s0kAJ6QBPdJiwxIZ-79" style="edgeStyle=orthogonalEdgeStyle;shape=connector;rounded=0;orthogonalLoop=1;jettySize=auto;html=1;exitX=0.5;exitY=1;exitDx=0;exitDy=0;entryX=0.165;entryY=-0.014;entryDx=0;entryDy=0;entryPerimeter=0;strokeColor=default;align=center;verticalAlign=middle;fontFamily=Helvetica;fontSize=7;fontColor=default;labelBackgroundColor=default;autosize=1;resizable=0;startFill=0;endArrow=none;" parent="1" source="RL78s0kAJ6QBPdJiwxIZ-78" target="RL78s0kAJ6QBPdJiwxIZ-4" edge="1">
          <mxGeometry relative="1" as="geometry" />
        </mxCell>
        <mxCell id="RL78s0kAJ6QBPdJiwxIZ-80" value="Valore" style="text;html=1;align=center;verticalAlign=middle;resizable=0;points=[];autosize=1;strokeColor=none;fillColor=none;fontFamily=Helvetica;fontSize=7;fontColor=default;labelBackgroundColor=default;" parent="1" vertex="1">
          <mxGeometry x="660" y="275" width="40" height="20" as="geometry" />
        </mxCell>
        <mxCell id="RL78s0kAJ6QBPdJiwxIZ-113" value="" style="ellipse;whiteSpace=wrap;html=1;aspect=fixed;fillColor=#000000;" parent="1" vertex="1">
          <mxGeometry x="175" y="768" width="10" height="10" as="geometry" />
        </mxCell>
        <mxCell id="RL78s0kAJ6QBPdJiwxIZ-116" value="" style="ellipse;whiteSpace=wrap;html=1;aspect=fixed;" parent="1" vertex="1">
          <mxGeometry x="700" y="540" width="10" height="10" as="geometry" />
        </mxCell>
        <mxCell id="RL78s0kAJ6QBPdJiwxIZ-117" value="" style="ellipse;whiteSpace=wrap;html=1;aspect=fixed;" parent="1" vertex="1">
          <mxGeometry x="760" y="540" width="10" height="10" as="geometry" />
        </mxCell>
        <mxCell id="RL78s0kAJ6QBPdJiwxIZ-119" value="Nome Categoria" style="text;html=1;align=center;verticalAlign=middle;resizable=0;points=[];autosize=1;strokeColor=none;fillColor=none;fontFamily=Helvetica;fontSize=7;fontColor=default;labelBackgroundColor=default;" parent="1" vertex="1">
          <mxGeometry x="145" y="790" width="70" height="20" as="geometry" />
        </mxCell>
        <mxCell id="RL78s0kAJ6QBPdJiwxIZ-124" style="edgeStyle=orthogonalEdgeStyle;shape=connector;rounded=0;orthogonalLoop=1;jettySize=auto;html=1;exitX=0.5;exitY=0;exitDx=0;exitDy=0;entryX=0.334;entryY=0.981;entryDx=0;entryDy=0;entryPerimeter=0;strokeColor=default;align=center;verticalAlign=middle;fontFamily=Helvetica;fontSize=7;fontColor=default;labelBackgroundColor=default;autosize=1;resizable=0;startFill=0;endArrow=none;" parent="1" edge="1">
          <mxGeometry relative="1" as="geometry">
            <mxPoint x="705.0000000000001" y="570.76" as="sourcePoint" />
            <mxPoint x="705.08" y="550" as="targetPoint" />
          </mxGeometry>
        </mxCell>
        <mxCell id="RL78s0kAJ6QBPdJiwxIZ-125" value="Durata" style="text;html=1;align=center;verticalAlign=middle;resizable=0;points=[];autosize=1;strokeColor=none;fillColor=none;fontFamily=Helvetica;fontSize=7;fontColor=default;labelBackgroundColor=default;" parent="1" vertex="1">
          <mxGeometry x="685" y="520" width="40" height="20" as="geometry" />
        </mxCell>
        <mxCell id="RL78s0kAJ6QBPdJiwxIZ-128" value="" style="ellipse;whiteSpace=wrap;html=1;aspect=fixed;" parent="1" vertex="1">
          <mxGeometry x="660" y="740" width="10" height="10" as="geometry" />
        </mxCell>
        <mxCell id="RL78s0kAJ6QBPdJiwxIZ-129" value="" style="ellipse;whiteSpace=wrap;html=1;aspect=fixed;" parent="1" vertex="1">
          <mxGeometry x="680" y="740" width="10" height="10" as="geometry" />
        </mxCell>
        <mxCell id="RL78s0kAJ6QBPdJiwxIZ-150" style="edgeStyle=orthogonalEdgeStyle;shape=connector;rounded=0;orthogonalLoop=1;jettySize=auto;html=1;exitX=1;exitY=0.5;exitDx=0;exitDy=0;entryX=0;entryY=0.5;entryDx=0;entryDy=0;strokeColor=default;align=center;verticalAlign=middle;fontFamily=Helvetica;fontSize=7;fontColor=default;labelBackgroundColor=default;autosize=1;resizable=0;startFill=0;endArrow=none;" parent="1" source="RL78s0kAJ6QBPdJiwxIZ-130" target="RL78s0kAJ6QBPdJiwxIZ-137" edge="1">
          <mxGeometry relative="1" as="geometry" />
        </mxCell>
        <mxCell id="RL78s0kAJ6QBPdJiwxIZ-130" value="" style="ellipse;whiteSpace=wrap;html=1;aspect=fixed;" parent="1" vertex="1">
          <mxGeometry x="625" y="700" width="10" height="10" as="geometry" />
        </mxCell>
        <mxCell id="RL78s0kAJ6QBPdJiwxIZ-133" style="edgeStyle=orthogonalEdgeStyle;shape=connector;rounded=0;orthogonalLoop=1;jettySize=auto;html=1;exitX=0.5;exitY=1;exitDx=0;exitDy=0;entryX=0.664;entryY=0.02;entryDx=0;entryDy=0;entryPerimeter=0;strokeColor=default;align=center;verticalAlign=middle;fontFamily=Helvetica;fontSize=7;fontColor=default;labelBackgroundColor=default;autosize=1;resizable=0;startFill=0;endArrow=none;" parent="1" source="RL78s0kAJ6QBPdJiwxIZ-117" edge="1">
          <mxGeometry relative="1" as="geometry">
            <mxPoint x="764.6800000000001" y="570.8000000000001" as="targetPoint" />
          </mxGeometry>
        </mxCell>
        <mxCell id="RL78s0kAJ6QBPdJiwxIZ-136" value="" style="shape=flexArrow;endArrow=classic;html=1;rounded=0;strokeColor=default;align=center;verticalAlign=middle;fontFamily=Helvetica;fontSize=7;fontColor=default;labelBackgroundColor=default;autosize=1;resizable=0;edgeStyle=orthogonalEdgeStyle;fillColor=#000000;" parent="1" edge="1">
          <mxGeometry width="50" height="50" relative="1" as="geometry">
            <mxPoint x="730" y="650" as="sourcePoint" />
            <mxPoint x="730" y="610" as="targetPoint" />
          </mxGeometry>
        </mxCell>
        <mxCell id="RL78s0kAJ6QBPdJiwxIZ-138" style="edgeStyle=orthogonalEdgeStyle;shape=connector;rounded=0;orthogonalLoop=1;jettySize=auto;html=1;exitX=0.5;exitY=0;exitDx=0;exitDy=0;strokeColor=default;align=center;verticalAlign=middle;fontFamily=Helvetica;fontSize=7;fontColor=default;labelBackgroundColor=default;autosize=1;resizable=0;startFill=0;endArrow=none;" parent="1" source="RL78s0kAJ6QBPdJiwxIZ-137" edge="1">
          <mxGeometry relative="1" as="geometry">
            <mxPoint x="679.8823529411765" y="650" as="targetPoint" />
          </mxGeometry>
        </mxCell>
        <mxCell id="RL78s0kAJ6QBPdJiwxIZ-137" value="Asta&lt;div&gt;Aperta&lt;/div&gt;" style="whiteSpace=wrap;html=1;align=center;verticalAlign=middle;fontFamily=Helvetica;fontSize=7;fontColor=default;labelBackgroundColor=default;autosize=1;resizable=0;fillColor=none;gradientColor=none;" parent="1" vertex="1">
          <mxGeometry x="660" y="690" width="40" height="30" as="geometry" />
        </mxCell>
        <mxCell id="RL78s0kAJ6QBPdJiwxIZ-139" value="" style="line;strokeWidth=1;rotatable=0;dashed=0;labelPosition=right;align=left;verticalAlign=middle;spacingTop=0;spacingLeft=6;points=[];portConstraint=eastwest;fontFamily=Helvetica;fontSize=7;fontColor=default;labelBackgroundColor=default;autosize=1;resizable=0;fillColor=none;gradientColor=none;" parent="1" vertex="1">
          <mxGeometry x="680" y="630" width="50" height="40" as="geometry" />
        </mxCell>
        <mxCell id="RL78s0kAJ6QBPdJiwxIZ-140" value="Nuova&lt;div&gt;Asta&lt;/div&gt;" style="whiteSpace=wrap;html=1;align=center;verticalAlign=middle;fontFamily=Helvetica;fontSize=7;fontColor=default;labelBackgroundColor=default;autosize=1;resizable=0;fillColor=none;gradientColor=none;" parent="1" vertex="1">
          <mxGeometry x="750" y="690" width="40" height="30" as="geometry" />
        </mxCell>
        <mxCell id="RL78s0kAJ6QBPdJiwxIZ-141" style="edgeStyle=orthogonalEdgeStyle;shape=connector;rounded=0;orthogonalLoop=1;jettySize=auto;html=1;exitX=0.5;exitY=0;exitDx=0;exitDy=0;entryX=1;entryY=0.5;entryDx=0;entryDy=0;entryPerimeter=0;strokeColor=default;align=center;verticalAlign=middle;fontFamily=Helvetica;fontSize=7;fontColor=default;labelBackgroundColor=default;autosize=1;resizable=0;startFill=0;endArrow=none;" parent="1" source="RL78s0kAJ6QBPdJiwxIZ-140" target="RL78s0kAJ6QBPdJiwxIZ-139" edge="1">
          <mxGeometry relative="1" as="geometry" />
        </mxCell>
        <mxCell id="RL78s0kAJ6QBPdJiwxIZ-146" value="Numero&lt;br&gt;Offerte" style="text;html=1;align=center;verticalAlign=middle;resizable=0;points=[];autosize=1;strokeColor=none;fillColor=none;fontFamily=Helvetica;fontSize=7;fontColor=default;labelBackgroundColor=default;" parent="1" vertex="1">
          <mxGeometry x="635" y="748" width="50" height="30" as="geometry" />
        </mxCell>
        <mxCell id="RL78s0kAJ6QBPdJiwxIZ-147" style="edgeStyle=orthogonalEdgeStyle;shape=connector;rounded=0;orthogonalLoop=1;jettySize=auto;html=1;exitX=0.5;exitY=0;exitDx=0;exitDy=0;entryX=0.13;entryY=0.996;entryDx=0;entryDy=0;entryPerimeter=0;strokeColor=default;align=center;verticalAlign=middle;fontFamily=Helvetica;fontSize=7;fontColor=default;labelBackgroundColor=default;autosize=1;resizable=0;startFill=0;endArrow=none;" parent="1" source="RL78s0kAJ6QBPdJiwxIZ-128" target="RL78s0kAJ6QBPdJiwxIZ-137" edge="1">
          <mxGeometry relative="1" as="geometry" />
        </mxCell>
        <mxCell id="RL78s0kAJ6QBPdJiwxIZ-148" style="edgeStyle=orthogonalEdgeStyle;shape=connector;rounded=0;orthogonalLoop=1;jettySize=auto;html=1;exitX=0.5;exitY=0;exitDx=0;exitDy=0;entryX=0.624;entryY=0.977;entryDx=0;entryDy=0;entryPerimeter=0;strokeColor=default;align=center;verticalAlign=middle;fontFamily=Helvetica;fontSize=7;fontColor=default;labelBackgroundColor=default;autosize=1;resizable=0;startFill=0;endArrow=none;" parent="1" source="RL78s0kAJ6QBPdJiwxIZ-129" target="RL78s0kAJ6QBPdJiwxIZ-137" edge="1">
          <mxGeometry relative="1" as="geometry" />
        </mxCell>
        <mxCell id="RL78s0kAJ6QBPdJiwxIZ-149" value="Tempo&lt;div&gt;Mancante&lt;/div&gt;" style="text;html=1;align=center;verticalAlign=middle;resizable=0;points=[];autosize=1;strokeColor=none;fillColor=none;fontFamily=Helvetica;fontSize=7;fontColor=default;labelBackgroundColor=default;" parent="1" vertex="1">
          <mxGeometry x="665" y="748" width="50" height="30" as="geometry" />
        </mxCell>
        <mxCell id="RL78s0kAJ6QBPdJiwxIZ-151" value="Importo&lt;div&gt;Offerta max&lt;/div&gt;" style="text;html=1;align=center;verticalAlign=middle;resizable=0;points=[];autosize=1;strokeColor=none;fillColor=none;fontFamily=Helvetica;fontSize=7;fontColor=default;labelBackgroundColor=default;" parent="1" vertex="1">
          <mxGeometry x="570" y="688" width="60" height="30" as="geometry" />
        </mxCell>
        <mxCell id="RL78s0kAJ6QBPdJiwxIZ-152" value="" style="ellipse;whiteSpace=wrap;html=1;aspect=fixed;fillColor=#000000;" parent="1" vertex="1">
          <mxGeometry x="280" y="540" width="10" height="10" as="geometry" />
        </mxCell>
        <mxCell id="RL78s0kAJ6QBPdJiwxIZ-153" value="" style="ellipse;whiteSpace=wrap;html=1;aspect=fixed;" parent="1" vertex="1">
          <mxGeometry x="300" y="540" width="10" height="10" as="geometry" />
        </mxCell>
        <mxCell id="RL78s0kAJ6QBPdJiwxIZ-155" value="" style="ellipse;whiteSpace=wrap;html=1;aspect=fixed;" parent="1" vertex="1">
          <mxGeometry x="360" y="630" width="10" height="10" as="geometry" />
        </mxCell>
        <mxCell id="RL78s0kAJ6QBPdJiwxIZ-156" value="" style="ellipse;whiteSpace=wrap;html=1;aspect=fixed;" parent="1" vertex="1">
          <mxGeometry x="370" y="530" width="10" height="10" as="geometry" />
        </mxCell>
        <mxCell id="RL78s0kAJ6QBPdJiwxIZ-157" value="" style="ellipse;whiteSpace=wrap;html=1;aspect=fixed;" parent="1" vertex="1">
          <mxGeometry x="280" y="630" width="10" height="10" as="geometry" />
        </mxCell>
        <mxCell id="RL78s0kAJ6QBPdJiwxIZ-159" style="edgeStyle=orthogonalEdgeStyle;shape=connector;rounded=0;orthogonalLoop=1;jettySize=auto;html=1;exitX=0.5;exitY=1;exitDx=0;exitDy=0;entryX=0.089;entryY=0.032;entryDx=0;entryDy=0;entryPerimeter=0;strokeColor=default;align=center;verticalAlign=middle;fontFamily=Helvetica;fontSize=7;fontColor=default;labelBackgroundColor=default;autosize=1;resizable=0;startFill=0;endArrow=none;" parent="1" source="RL78s0kAJ6QBPdJiwxIZ-152" target="RL78s0kAJ6QBPdJiwxIZ-13" edge="1">
          <mxGeometry relative="1" as="geometry" />
        </mxCell>
        <mxCell id="RL78s0kAJ6QBPdJiwxIZ-160" value="Codice&amp;nbsp;" style="text;html=1;align=center;verticalAlign=middle;resizable=0;points=[];autosize=1;strokeColor=none;fillColor=none;fontFamily=Helvetica;fontSize=7;fontColor=default;labelBackgroundColor=default;" parent="1" vertex="1">
          <mxGeometry x="250" y="520" width="50" height="20" as="geometry" />
        </mxCell>
        <mxCell id="RL78s0kAJ6QBPdJiwxIZ-162" style="edgeStyle=orthogonalEdgeStyle;shape=connector;rounded=0;orthogonalLoop=1;jettySize=auto;html=1;exitX=0.5;exitY=1;exitDx=0;exitDy=0;entryX=0.273;entryY=0.015;entryDx=0;entryDy=0;entryPerimeter=0;strokeColor=default;align=center;verticalAlign=middle;fontFamily=Helvetica;fontSize=7;fontColor=default;labelBackgroundColor=default;autosize=1;resizable=0;startFill=0;endArrow=none;" parent="1" source="RL78s0kAJ6QBPdJiwxIZ-153" target="RL78s0kAJ6QBPdJiwxIZ-13" edge="1">
          <mxGeometry relative="1" as="geometry" />
        </mxCell>
        <mxCell id="RL78s0kAJ6QBPdJiwxIZ-163" value="Descrizione" style="text;html=1;align=center;verticalAlign=middle;resizable=0;points=[];autosize=1;strokeColor=none;fillColor=none;fontFamily=Helvetica;fontSize=7;fontColor=default;labelBackgroundColor=default;" parent="1" vertex="1">
          <mxGeometry x="280" y="520" width="60" height="20" as="geometry" />
        </mxCell>
        <mxCell id="RL78s0kAJ6QBPdJiwxIZ-164" value="Stato" style="text;html=1;align=center;verticalAlign=middle;resizable=0;points=[];autosize=1;strokeColor=none;fillColor=none;fontFamily=Helvetica;fontSize=7;fontColor=default;labelBackgroundColor=default;" parent="1" vertex="1">
          <mxGeometry x="345" y="635" width="40" height="20" as="geometry" />
        </mxCell>
        <mxCell id="RL78s0kAJ6QBPdJiwxIZ-166" style="edgeStyle=orthogonalEdgeStyle;shape=connector;rounded=0;orthogonalLoop=1;jettySize=auto;html=1;exitX=0.5;exitY=1;exitDx=0;exitDy=0;entryX=0.91;entryY=0.003;entryDx=0;entryDy=0;entryPerimeter=0;strokeColor=default;align=center;verticalAlign=middle;fontFamily=Helvetica;fontSize=7;fontColor=default;labelBackgroundColor=default;autosize=1;resizable=0;startFill=0;endArrow=none;" parent="1" source="RL78s0kAJ6QBPdJiwxIZ-156" target="RL78s0kAJ6QBPdJiwxIZ-13" edge="1">
          <mxGeometry relative="1" as="geometry" />
        </mxCell>
        <mxCell id="RL78s0kAJ6QBPdJiwxIZ-167" value="Prezzo Base" style="text;html=1;align=center;verticalAlign=middle;resizable=0;points=[];autosize=1;strokeColor=none;fillColor=none;fontFamily=Helvetica;fontSize=7;fontColor=default;labelBackgroundColor=default;" parent="1" vertex="1">
          <mxGeometry x="340" y="510" width="60" height="20" as="geometry" />
        </mxCell>
        <mxCell id="RL78s0kAJ6QBPdJiwxIZ-170" value="Dimensioni" style="text;html=1;align=center;verticalAlign=middle;resizable=0;points=[];autosize=1;strokeColor=none;fillColor=none;fontFamily=Helvetica;fontSize=7;fontColor=default;labelBackgroundColor=default;" parent="1" vertex="1">
          <mxGeometry x="255" y="635" width="60" height="20" as="geometry" />
        </mxCell>
        <mxCell id="RL78s0kAJ6QBPdJiwxIZ-172" style="edgeStyle=orthogonalEdgeStyle;shape=connector;rounded=0;orthogonalLoop=1;jettySize=auto;html=1;exitX=0.5;exitY=0;exitDx=0;exitDy=0;entryX=0.5;entryY=1;entryDx=0;entryDy=0;strokeColor=default;align=center;verticalAlign=middle;fontFamily=Helvetica;fontSize=7;fontColor=default;labelBackgroundColor=default;autosize=1;resizable=0;startFill=0;endArrow=none;" parent="1" source="RL78s0kAJ6QBPdJiwxIZ-171" target="RL78s0kAJ6QBPdJiwxIZ-1" edge="1">
          <mxGeometry relative="1" as="geometry" />
        </mxCell>
        <mxCell id="RL78s0kAJ6QBPdJiwxIZ-173" style="edgeStyle=orthogonalEdgeStyle;shape=connector;rounded=0;orthogonalLoop=1;jettySize=auto;html=1;exitX=0.5;exitY=1;exitDx=0;exitDy=0;entryX=0.5;entryY=0;entryDx=0;entryDy=0;strokeColor=default;align=center;verticalAlign=middle;fontFamily=Helvetica;fontSize=7;fontColor=default;labelBackgroundColor=default;autosize=1;resizable=0;startFill=0;endArrow=none;" parent="1" source="RL78s0kAJ6QBPdJiwxIZ-171" target="RL78s0kAJ6QBPdJiwxIZ-13" edge="1">
          <mxGeometry relative="1" as="geometry" />
        </mxCell>
        <mxCell id="RL78s0kAJ6QBPdJiwxIZ-171" value="Posseduto" style="shape=rhombus;perimeter=rhombusPerimeter;whiteSpace=wrap;html=1;align=center;verticalAlign=middle;fontFamily=Helvetica;fontSize=12;fontColor=default;labelBackgroundColor=default;autosize=1;resizable=0;fillColor=none;gradientColor=none;strokeWidth=1;perimeterSpacing=0;direction=east;" parent="1" vertex="1">
          <mxGeometry x="290" y="430" width="80" height="30" as="geometry" />
        </mxCell>
        <mxCell id="RL78s0kAJ6QBPdJiwxIZ-174" value="(1,n)" style="text;html=1;align=center;verticalAlign=middle;resizable=0;points=[];autosize=1;strokeColor=none;fillColor=none;fontFamily=Helvetica;fontSize=7;fontColor=default;labelBackgroundColor=default;" parent="1" vertex="1">
          <mxGeometry x="375" y="323" width="40" height="20" as="geometry" />
        </mxCell>
        <mxCell id="RL78s0kAJ6QBPdJiwxIZ-175" value="(0,1)" style="text;html=1;align=center;verticalAlign=middle;resizable=0;points=[];autosize=1;strokeColor=none;fillColor=none;fontFamily=Helvetica;fontSize=7;fontColor=default;labelBackgroundColor=default;" parent="1" vertex="1">
          <mxGeometry x="630" y="323" width="40" height="20" as="geometry" />
        </mxCell>
        <mxCell id="RL78s0kAJ6QBPdJiwxIZ-176" value="(1,n)" style="text;html=1;align=center;verticalAlign=middle;resizable=0;points=[];autosize=1;strokeColor=none;fillColor=none;fontFamily=Helvetica;fontSize=7;fontColor=default;labelBackgroundColor=default;" parent="1" vertex="1">
          <mxGeometry x="715" y="360" width="40" height="20" as="geometry" />
        </mxCell>
        <mxCell id="RL78s0kAJ6QBPdJiwxIZ-178" value="(1,n)" style="text;html=1;align=center;verticalAlign=middle;resizable=0;points=[];autosize=1;strokeColor=none;fillColor=none;fontFamily=Helvetica;fontSize=7;fontColor=default;labelBackgroundColor=default;" parent="1" vertex="1">
          <mxGeometry x="715" y="552" width="40" height="20" as="geometry" />
        </mxCell>
        <mxCell id="RL78s0kAJ6QBPdJiwxIZ-179" value="(1,1)" style="text;html=1;align=center;verticalAlign=middle;resizable=0;points=[];autosize=1;strokeColor=none;fillColor=none;fontFamily=Helvetica;fontSize=7;fontColor=default;labelBackgroundColor=default;" parent="1" vertex="1">
          <mxGeometry x="620" y="570" width="40" height="20" as="geometry" />
        </mxCell>
        <mxCell id="RL78s0kAJ6QBPdJiwxIZ-180" value="(1,1)" style="text;html=1;align=center;verticalAlign=middle;resizable=0;points=[];autosize=1;strokeColor=none;fillColor=none;fontFamily=Helvetica;fontSize=7;fontColor=default;labelBackgroundColor=default;" parent="1" vertex="1">
          <mxGeometry x="380" y="570" width="40" height="20" as="geometry" />
        </mxCell>
        <mxCell id="RL78s0kAJ6QBPdJiwxIZ-181" value="(1,n)" style="text;html=1;align=center;verticalAlign=middle;resizable=0;points=[];autosize=1;strokeColor=none;fillColor=none;fontFamily=Helvetica;fontSize=7;fontColor=default;labelBackgroundColor=default;" parent="1" vertex="1">
          <mxGeometry x="320" y="360" width="40" height="20" as="geometry" />
        </mxCell>
        <mxCell id="RL78s0kAJ6QBPdJiwxIZ-182" style="edgeStyle=orthogonalEdgeStyle;shape=connector;rounded=0;orthogonalLoop=1;jettySize=auto;html=1;exitX=0.5;exitY=0;exitDx=0;exitDy=0;entryX=0.818;entryY=1.009;entryDx=0;entryDy=0;entryPerimeter=0;strokeColor=default;align=center;verticalAlign=middle;fontFamily=Helvetica;fontSize=7;fontColor=default;labelBackgroundColor=default;autosize=1;resizable=0;startFill=0;endArrow=none;" parent="1" source="RL78s0kAJ6QBPdJiwxIZ-155" target="RL78s0kAJ6QBPdJiwxIZ-13" edge="1">
          <mxGeometry relative="1" as="geometry" />
        </mxCell>
        <mxCell id="RL78s0kAJ6QBPdJiwxIZ-183" value="(0,n)" style="text;html=1;align=center;verticalAlign=middle;resizable=0;points=[];autosize=1;strokeColor=none;fillColor=none;fontFamily=Helvetica;fontSize=7;fontColor=default;labelBackgroundColor=default;" parent="1" vertex="1">
          <mxGeometry x="320" y="552" width="40" height="20" as="geometry" />
        </mxCell>
        <mxCell id="RL78s0kAJ6QBPdJiwxIZ-184" value="(1,1)" style="text;html=1;align=center;verticalAlign=middle;resizable=0;points=[];autosize=1;strokeColor=none;fillColor=none;fontFamily=Helvetica;fontSize=7;fontColor=default;labelBackgroundColor=default;" parent="1" vertex="1">
          <mxGeometry x="300" y="610" width="40" height="20" as="geometry" />
        </mxCell>
        <mxCell id="RL78s0kAJ6QBPdJiwxIZ-185" value="(1,n)" style="text;html=1;align=center;verticalAlign=middle;resizable=0;points=[];autosize=1;strokeColor=none;fillColor=none;fontFamily=Helvetica;fontSize=7;fontColor=default;labelBackgroundColor=default;" parent="1" vertex="1">
          <mxGeometry x="200" y="695" width="40" height="20" as="geometry" />
        </mxCell>
        <mxCell id="RL78s0kAJ6QBPdJiwxIZ-186" value="Data Inizio" style="text;html=1;align=center;verticalAlign=middle;resizable=0;points=[];autosize=1;strokeColor=none;fillColor=none;fontFamily=Helvetica;fontSize=7;fontColor=default;labelBackgroundColor=default;" parent="1" vertex="1">
          <mxGeometry x="750" y="520" width="60" height="20" as="geometry" />
        </mxCell>
        <mxCell id="RL78s0kAJ6QBPdJiwxIZ-195" value="(1,n)" style="text;html=1;align=center;verticalAlign=middle;resizable=0;points=[];autosize=1;strokeColor=none;fillColor=none;fontFamily=Helvetica;fontSize=7;fontColor=default;labelBackgroundColor=default;" parent="1" vertex="1">
          <mxGeometry x="235" y="323" width="40" height="20" as="geometry" />
        </mxCell>
        <mxCell id="RL78s0kAJ6QBPdJiwxIZ-201" value="" style="edgeStyle=orthogonalEdgeStyle;elbow=vertical;endArrow=none;html=1;curved=1;rounded=0;endSize=8;startSize=8;strokeColor=default;align=center;verticalAlign=middle;fontFamily=Helvetica;fontSize=7;fontColor=default;labelBackgroundColor=default;autosize=1;resizable=0;startFill=0;exitDx=0;exitDy=0;exitPerimeter=0;" parent="1" edge="1">
          <mxGeometry width="50" height="50" relative="1" as="geometry">
            <mxPoint x="635" y="615" as="sourcePoint" />
            <mxPoint x="635" y="614" as="targetPoint" />
          </mxGeometry>
        </mxCell>
        <mxCell id="RL78s0kAJ6QBPdJiwxIZ-203" value="" style="edgeStyle=orthogonalEdgeStyle;elbow=vertical;endArrow=none;html=1;curved=1;rounded=0;endSize=8;startSize=8;strokeColor=default;align=center;verticalAlign=middle;fontFamily=Helvetica;fontSize=7;fontColor=default;labelBackgroundColor=default;autosize=1;resizable=0;startFill=0;exitX=0.893;exitY=-0.031;exitDx=0;exitDy=0;exitPerimeter=0;" parent="1" source="RL78s0kAJ6QBPdJiwxIZ-183" edge="1">
          <mxGeometry width="50" height="50" relative="1" as="geometry">
            <mxPoint x="356" y="551" as="sourcePoint" />
            <mxPoint x="635" y="615" as="targetPoint" />
          </mxGeometry>
        </mxCell>
        <mxCell id="RL78s0kAJ6QBPdJiwxIZ-204" value="" style="ellipse;whiteSpace=wrap;html=1;aspect=fixed;fillColor=#000000;" parent="1" vertex="1">
          <mxGeometry x="630" y="615" width="10" height="10" as="geometry" />
        </mxCell>
        <mxCell id="YIp0TGbymO81s-PDPYMm-2" style="edgeStyle=orthogonalEdgeStyle;rounded=0;orthogonalLoop=1;jettySize=auto;html=1;exitX=0.5;exitY=0;exitDx=0;exitDy=0;entryX=0.7;entryY=0.983;entryDx=0;entryDy=0;entryPerimeter=0;endArrow=none;startFill=0;" edge="1" parent="1" source="RL78s0kAJ6QBPdJiwxIZ-113" target="RL78s0kAJ6QBPdJiwxIZ-16">
          <mxGeometry relative="1" as="geometry" />
        </mxCell>
        <mxCell id="YIp0TGbymO81s-PDPYMm-3" style="edgeStyle=orthogonalEdgeStyle;rounded=0;orthogonalLoop=1;jettySize=auto;html=1;exitX=1;exitY=0.25;exitDx=0;exitDy=0;entryX=0.025;entryY=0.48;entryDx=0;entryDy=0;entryPerimeter=0;endArrow=none;startFill=0;" edge="1" parent="1" source="RL78s0kAJ6QBPdJiwxIZ-16" target="RL78s0kAJ6QBPdJiwxIZ-15">
          <mxGeometry relative="1" as="geometry" />
        </mxCell>
        <mxCell id="YIp0TGbymO81s-PDPYMm-35" style="edgeStyle=orthogonalEdgeStyle;rounded=0;orthogonalLoop=1;jettySize=auto;html=1;exitX=1;exitY=0.5;exitDx=0;exitDy=0;endArrow=none;startFill=0;" edge="1" parent="1" source="YIp0TGbymO81s-PDPYMm-4">
          <mxGeometry relative="1" as="geometry">
            <mxPoint x="310" y="190" as="targetPoint" />
          </mxGeometry>
        </mxCell>
        <mxCell id="YIp0TGbymO81s-PDPYMm-50" style="edgeStyle=orthogonalEdgeStyle;rounded=0;orthogonalLoop=1;jettySize=auto;html=1;exitX=0.731;exitY=1.144;exitDx=0;exitDy=0;endArrow=none;startFill=0;exitPerimeter=0;entryX=0;entryY=0.5;entryDx=0;entryDy=0;" edge="1" parent="1" source="YIp0TGbymO81s-PDPYMm-48" target="YIp0TGbymO81s-PDPYMm-39">
          <mxGeometry relative="1" as="geometry">
            <mxPoint x="40" y="240" as="sourcePoint" />
            <mxPoint x="89.99999999999994" y="450" as="targetPoint" />
            <Array as="points">
              <mxPoint x="20" y="233" />
              <mxPoint x="20" y="480" />
            </Array>
          </mxGeometry>
        </mxCell>
        <mxCell id="YIp0TGbymO81s-PDPYMm-4" value="Amministratore" style="whiteSpace=wrap;html=1;align=center;" vertex="1" parent="1">
          <mxGeometry x="160" y="210" width="110" height="40" as="geometry" />
        </mxCell>
        <mxCell id="YIp0TGbymO81s-PDPYMm-7" style="edgeStyle=orthogonalEdgeStyle;shape=connector;rounded=0;orthogonalLoop=1;jettySize=auto;html=1;entryX=0.959;entryY=0.817;entryDx=0;entryDy=0;entryPerimeter=0;strokeColor=default;align=center;verticalAlign=middle;fontFamily=Helvetica;fontSize=11;fontColor=default;labelBackgroundColor=default;startFill=0;endArrow=none;" edge="1" parent="1">
          <mxGeometry relative="1" as="geometry">
            <mxPoint x="405" y="160" as="sourcePoint" />
            <mxPoint x="405" y="160" as="targetPoint" />
          </mxGeometry>
        </mxCell>
        <mxCell id="YIp0TGbymO81s-PDPYMm-22" value="Utente" style="whiteSpace=wrap;html=1;align=center;" vertex="1" parent="1">
          <mxGeometry x="290" y="110" width="100" height="40" as="geometry" />
        </mxCell>
        <mxCell id="YIp0TGbymO81s-PDPYMm-24" value="" style="ellipse;whiteSpace=wrap;html=1;aspect=fixed;strokeColor=#330000;fillColor=#000000;" vertex="1" parent="1">
          <mxGeometry x="275" y="380.4" width="10" height="10" as="geometry" />
        </mxCell>
        <mxCell id="YIp0TGbymO81s-PDPYMm-26" style="edgeStyle=orthogonalEdgeStyle;rounded=0;orthogonalLoop=1;jettySize=auto;html=1;exitX=0.5;exitY=0;exitDx=0;exitDy=0;entryX=0.042;entryY=0.986;entryDx=0;entryDy=0;entryPerimeter=0;endArrow=none;startFill=0;" edge="1" parent="1" source="YIp0TGbymO81s-PDPYMm-24" target="RL78s0kAJ6QBPdJiwxIZ-1">
          <mxGeometry relative="1" as="geometry" />
        </mxCell>
        <mxCell id="YIp0TGbymO81s-PDPYMm-30" value="" style="ellipse;whiteSpace=wrap;html=1;aspect=fixed;" vertex="1" parent="1">
          <mxGeometry x="365" y="380.4" width="10" height="10" as="geometry" />
        </mxCell>
        <mxCell id="YIp0TGbymO81s-PDPYMm-31" style="edgeStyle=orthogonalEdgeStyle;rounded=0;orthogonalLoop=1;jettySize=auto;html=1;exitX=0.5;exitY=0;exitDx=0;exitDy=0;entryX=0.863;entryY=1.003;entryDx=0;entryDy=0;entryPerimeter=0;endArrow=none;startFill=0;" edge="1" parent="1" source="YIp0TGbymO81s-PDPYMm-30" target="RL78s0kAJ6QBPdJiwxIZ-1">
          <mxGeometry relative="1" as="geometry" />
        </mxCell>
        <mxCell id="YIp0TGbymO81s-PDPYMm-32" style="edgeStyle=orthogonalEdgeStyle;rounded=0;orthogonalLoop=1;jettySize=auto;html=1;exitX=0;exitY=0.5;exitDx=0;exitDy=0;entryX=0.998;entryY=0.919;entryDx=0;entryDy=0;entryPerimeter=0;endArrow=none;startFill=0;" edge="1" parent="1" source="RL78s0kAJ6QBPdJiwxIZ-71" target="RL78s0kAJ6QBPdJiwxIZ-1">
          <mxGeometry relative="1" as="geometry" />
        </mxCell>
        <mxCell id="YIp0TGbymO81s-PDPYMm-33" value="" style="shape=flexArrow;endArrow=classic;html=1;rounded=0;strokeColor=default;align=center;verticalAlign=middle;fontFamily=Helvetica;fontSize=7;fontColor=default;labelBackgroundColor=default;autosize=1;resizable=0;edgeStyle=orthogonalEdgeStyle;fillColor=#000000;" edge="1" parent="1">
          <mxGeometry width="50" height="50" relative="1" as="geometry">
            <mxPoint x="340.03" y="190" as="sourcePoint" />
            <mxPoint x="340.03" y="150" as="targetPoint" />
            <Array as="points">
              <mxPoint x="340.03" y="165" />
              <mxPoint x="340.03" y="165" />
            </Array>
          </mxGeometry>
        </mxCell>
        <mxCell id="YIp0TGbymO81s-PDPYMm-36" value="" style="endArrow=none;html=1;rounded=0;" edge="1" parent="1">
          <mxGeometry relative="1" as="geometry">
            <mxPoint x="310" y="190" as="sourcePoint" />
            <mxPoint x="370" y="190" as="targetPoint" />
          </mxGeometry>
        </mxCell>
        <mxCell id="YIp0TGbymO81s-PDPYMm-38" style="edgeStyle=orthogonalEdgeStyle;rounded=0;orthogonalLoop=1;jettySize=auto;html=1;endArrow=none;startFill=0;exitX=0.869;exitY=0.053;exitDx=0;exitDy=0;exitPerimeter=0;" edge="1" parent="1" source="RL78s0kAJ6QBPdJiwxIZ-1">
          <mxGeometry relative="1" as="geometry">
            <mxPoint x="370" y="190" as="targetPoint" />
            <mxPoint x="370" y="260" as="sourcePoint" />
          </mxGeometry>
        </mxCell>
        <mxCell id="YIp0TGbymO81s-PDPYMm-46" style="edgeStyle=orthogonalEdgeStyle;rounded=0;orthogonalLoop=1;jettySize=auto;html=1;exitX=0.5;exitY=1;exitDx=0;exitDy=0;endArrow=none;startFill=0;" edge="1" parent="1" source="YIp0TGbymO81s-PDPYMm-39">
          <mxGeometry relative="1" as="geometry">
            <mxPoint x="160" y="600" as="targetPoint" />
          </mxGeometry>
        </mxCell>
        <mxCell id="YIp0TGbymO81s-PDPYMm-39" value="Creazione" style="shape=rhombus;perimeter=rhombusPerimeter;whiteSpace=wrap;html=1;align=center;" vertex="1" parent="1">
          <mxGeometry x="100" y="450" width="120" height="60" as="geometry" />
        </mxCell>
        <mxCell id="YIp0TGbymO81s-PDPYMm-45" style="edgeStyle=orthogonalEdgeStyle;rounded=0;orthogonalLoop=1;jettySize=auto;html=1;exitX=0.5;exitY=0;exitDx=0;exitDy=0;entryX=0.088;entryY=0.98;entryDx=0;entryDy=0;entryPerimeter=0;endArrow=none;startFill=0;" edge="1" parent="1" source="RL78s0kAJ6QBPdJiwxIZ-157" target="RL78s0kAJ6QBPdJiwxIZ-13">
          <mxGeometry relative="1" as="geometry" />
        </mxCell>
        <mxCell id="YIp0TGbymO81s-PDPYMm-47" value="" style="endArrow=none;html=1;rounded=0;entryX=0;entryY=0.75;entryDx=0;entryDy=0;" edge="1" parent="1" target="RL78s0kAJ6QBPdJiwxIZ-13">
          <mxGeometry relative="1" as="geometry">
            <mxPoint x="160" y="600" as="sourcePoint" />
            <mxPoint x="320" y="600" as="targetPoint" />
          </mxGeometry>
        </mxCell>
        <mxCell id="YIp0TGbymO81s-PDPYMm-48" value="(1,n)" style="text;html=1;align=center;verticalAlign=middle;resizable=0;points=[];autosize=1;strokeColor=none;fillColor=none;fontSize=7;" vertex="1" parent="1">
          <mxGeometry x="120" y="220" width="40" height="20" as="geometry" />
        </mxCell>
        <mxCell id="YIp0TGbymO81s-PDPYMm-49" value="(1,1)" style="text;html=1;align=center;verticalAlign=middle;resizable=0;points=[];autosize=1;strokeColor=none;fillColor=none;fontSize=7;" vertex="1" parent="1">
          <mxGeometry x="235" y="580" width="40" height="20" as="geometry" />
        </mxCell>
        <mxCell id="YIp0TGbymO81s-PDPYMm-171" value="" style="ellipse;whiteSpace=wrap;html=1;aspect=fixed;" vertex="1" parent="1">
          <mxGeometry x="300" y="80" width="10" height="10" as="geometry" />
        </mxCell>
        <mxCell id="YIp0TGbymO81s-PDPYMm-172" style="edgeStyle=orthogonalEdgeStyle;rounded=0;orthogonalLoop=1;jettySize=auto;html=1;exitX=0.5;exitY=1;exitDx=0;exitDy=0;entryX=0.152;entryY=0;entryDx=0;entryDy=0;entryPerimeter=0;endArrow=none;startFill=0;" edge="1" parent="1" source="YIp0TGbymO81s-PDPYMm-171" target="YIp0TGbymO81s-PDPYMm-22">
          <mxGeometry relative="1" as="geometry" />
        </mxCell>
        <mxCell id="YIp0TGbymO81s-PDPYMm-173" value="&lt;font style=&quot;font-size: 7px;&quot;&gt;Nome utente&lt;/font&gt;" style="text;html=1;align=center;verticalAlign=middle;resizable=0;points=[];autosize=1;strokeColor=none;fillColor=none;" vertex="1" parent="1">
          <mxGeometry x="270" y="60" width="60" height="30" as="geometry" />
        </mxCell>
        <mxCell id="YIp0TGbymO81s-PDPYMm-174" value="" style="ellipse;whiteSpace=wrap;html=1;aspect=fixed;" vertex="1" parent="1">
          <mxGeometry x="355" y="80" width="10" height="10" as="geometry" />
        </mxCell>
        <mxCell id="YIp0TGbymO81s-PDPYMm-175" style="edgeStyle=orthogonalEdgeStyle;rounded=0;orthogonalLoop=1;jettySize=auto;html=1;exitX=0.5;exitY=1;exitDx=0;exitDy=0;entryX=0.703;entryY=0.027;entryDx=0;entryDy=0;entryPerimeter=0;endArrow=none;startFill=0;" edge="1" parent="1" source="YIp0TGbymO81s-PDPYMm-174" target="YIp0TGbymO81s-PDPYMm-22">
          <mxGeometry relative="1" as="geometry" />
        </mxCell>
        <mxCell id="YIp0TGbymO81s-PDPYMm-176" value="&lt;font style=&quot;font-size: 7px;&quot;&gt;Password&lt;/font&gt;" style="text;html=1;align=center;verticalAlign=middle;resizable=0;points=[];autosize=1;strokeColor=none;fillColor=none;" vertex="1" parent="1">
          <mxGeometry x="335" y="58" width="50" height="30" as="geometry" />
        </mxCell>
      </root>
    </mxGraphModel>
  </diagram>
</mxfile>
